<svg id="Layer_1" data-name="Layer 1" xmlns="http://www.w3.org/2000/svg" viewBox="0 0 1000 650"><defs><style>.cls-1{fill:#7f614c;}.cls-2{fill:#bf997f;}.cls-3{fill:#f6ebdb;}.cls-4{fill:#9099a2;}.cls-13,.cls-5,.cls-7,.cls-9{fill:none;}.cls-5,.cls-6,.cls-7,.cls-8{stroke:#9099a2;}.cls-11,.cls-13,.cls-5,.cls-6,.cls-7,.cls-8,.cls-9{stroke-miterlimit:10;}.cls-13,.cls-5,.cls-6,.cls-9{stroke-width:3px;}.cls-10,.cls-6,.cls-8{fill:#d5d5d5;}.cls-7,.cls-8{stroke-width:2px;}.cls-9{stroke:#fff;}.cls-11{fill:#fff;stroke:#000;}.cls-12{font-size:160px;fill:#c43535;font-family:Noteworthy-Bold, Noteworthy;font-weight:700;}.cls-13{stroke:#c43535;}</style></defs><title>notFound-bg</title><rect class="cls-1" width="1000" height="650"/><rect class="cls-2" x="16.53" y="15.07" width="970" height="620"/><rect class="cls-3" x="527.53" y="30.07" width="430" height="211"/><rect class="cls-3" x="694.03" y="397.07" width="103" height="130"/><circle class="cls-4" cx="743.53" cy="458.6" r="17.73"/><rect class="cls-4" x="719.53" y="485.07" width="50" height="41"/><ellipse class="cls-4" cx="744.53" cy="486.07" rx="25" ry="10"/><rect class="cls-3" x="874.53" y="324.57" width="66" height="76"/><path class="cls-4" d="M888.53,388.81l.94-24.83s18-16.73,39.06.73l-.46,24.5Z"/><circle class="cls-4" cx="908.53" cy="346.53" r="10.91"/><rect class="cls-3" x="82.78" y="508.57" width="64" height="84"/><path class="cls-4" d="M92.53,578.81,93.47,554s18-16.73,39.06.73l-.46,24.5Z"/><circle class="cls-4" cx="112.53" cy="536.53" r="10.91"/><rect class="cls-3" x="856.28" y="512.07" width="69" height="85"/><path class="cls-4" d="M872.53,583.81l.94-24.83s18-16.73,39.06.73l-.46,24.5Z"/><circle class="cls-4" cx="892.53" cy="541.53" r="10.91"/><rect class="cls-3" x="536.28" y="316.07" width="69" height="85"/><path class="cls-4" d="M549.53,388.81l.94-24.83s18-16.73,39.06.73l-.46,24.5Z"/><circle class="cls-4" cx="569.53" cy="346.53" r="10.91"/><rect class="cls-3" x="83.87" y="123.57" width="116" height="158"/><line class="cls-5" x1="91.87" y1="137.07" x2="191.87" y2="137.07"/><line class="cls-6" x1="91.87" y1="161.07" x2="191.87" y2="161.07"/><line class="cls-6" x1="91.87" y1="184.07" x2="191.87" y2="184.07"/><line class="cls-6" x1="91.87" y1="200.07" x2="191.87" y2="200.07"/><line class="cls-6" x1="91.87" y1="219.07" x2="191.87" y2="219.07"/><line class="cls-6" x1="91.87" y1="227.07" x2="191.87" y2="227.07"/><line class="cls-6" x1="91.87" y1="237.07" x2="191.87" y2="237.07"/><line class="cls-6" x1="91.87" y1="253.07" x2="191.87" y2="253.07"/><line class="cls-6" x1="91.87" y1="265.07" x2="191.87" y2="265.07"/><line class="cls-6" x1="91.87" y1="151.07" x2="191.87" y2="151.07"/><line class="cls-6" x1="91.87" y1="144.07" x2="191.87" y2="144.07"/><line class="cls-6" x1="91.87" y1="169.07" x2="191.87" y2="169.07"/><line class="cls-6" x1="91.87" y1="178.07" x2="191.87" y2="178.07"/><rect class="cls-3" x="384.53" y="404.07" width="72" height="74"/><line class="cls-7" x1="448.03" y1="468.07" x2="393.03" y2="468.07"/><line class="cls-8" x1="448.03" y1="458.83" x2="393.03" y2="458.83"/><line class="cls-8" x1="448.03" y1="448.71" x2="393.03" y2="448.71"/><line class="cls-8" x1="448.03" y1="441.67" x2="393.03" y2="441.67"/><line class="cls-8" x1="448.03" y1="433.31" x2="393.03" y2="433.31"/><line class="cls-8" x1="448.03" y1="425.79" x2="393.03" y2="425.79"/><line class="cls-8" x1="448.03" y1="453.39" x2="393.03" y2="453.39"/><line class="cls-8" x1="448.03" y1="418.35" x2="393.03" y2="418.35"/><line class="cls-8" x1="448.03" y1="413.07" x2="393.03" y2="413.07"/><rect class="cls-3" x="227.28" y="346.07" width="73" height="11"/><rect class="cls-3" x="227.28" y="368.07" width="73" height="11"/><rect class="cls-3" x="227.28" y="326.82" width="73" height="11"/><rect class="cls-3" x="227.53" y="387.82" width="73" height="11"/><line class="cls-9" x1="290.53" y1="332.07" x2="235.53" y2="332.07"/><line class="cls-9" x1="289.53" y1="353.07" x2="234.53" y2="353.07"/><line class="cls-9" x1="290.53" y1="373.07" x2="235.53" y2="373.07"/><line class="cls-9" x1="290.53" y1="393.07" x2="235.53" y2="393.07"/><rect class="cls-3" x="254.53" y="59.07" width="124" height="179"/><path class="cls-4" d="M315,139.72l1.29-34.15s24.79-23,53.71,1l-.63,33.69Z"/><circle class="cls-4" cx="342.53" cy="81.57" r="15"/><line class="cls-7" x1="309.53" y1="141.07" x2="264.03" y2="141.07"/><line class="cls-8" x1="309.53" y1="129.98" x2="264.03" y2="129.98"/><line class="cls-8" x1="309.53" y1="117.84" x2="264.03" y2="117.84"/><line class="cls-8" x1="309.53" y1="109.39" x2="264.03" y2="109.39"/><line class="cls-8" x1="309.53" y1="99.36" x2="264.03" y2="99.36"/><line class="cls-8" x1="309.53" y1="90.33" x2="264.03" y2="90.33"/><line class="cls-8" x1="309.53" y1="123.45" x2="264.03" y2="123.45"/><line class="cls-8" x1="309.53" y1="81.4" x2="264.03" y2="81.4"/><line class="cls-8" x1="309.53" y1="75.07" x2="264.03" y2="75.07"/><line class="cls-7" x1="368.53" y1="227.07" x2="264.03" y2="227.07"/><line class="cls-8" x1="368.53" y1="213.96" x2="264.03" y2="213.96"/><line class="cls-8" x1="368.53" y1="199.61" x2="264.03" y2="199.61"/><line class="cls-8" x1="368.53" y1="189.63" x2="264.03" y2="189.63"/><line class="cls-8" x1="368.53" y1="177.77" x2="264.03" y2="177.77"/><line class="cls-8" x1="368.53" y1="167.11" x2="264.03" y2="167.11"/><line class="cls-8" x1="368.53" y1="206.25" x2="264.03" y2="206.25"/><line class="cls-8" x1="368.53" y1="156.56" x2="264.03" y2="156.56"/><line class="cls-8" x1="368.53" y1="149.07" x2="264.03" y2="149.07"/><rect class="cls-3" x="703.78" y="309.07" width="87" height="55"/><line class="cls-9" x1="779.28" y1="357.07" x2="715.28" y2="357.07"/><line class="cls-9" x1="779.28" y1="344.28" x2="715.28" y2="344.28"/><line class="cls-9" x1="779.28" y1="337.91" x2="715.28" y2="337.91"/><line class="cls-9" x1="779.28" y1="331.52" x2="715.28" y2="331.52"/><line class="cls-9" x1="779.28" y1="325.78" x2="715.28" y2="325.78"/><line class="cls-9" x1="779.28" y1="350.86" x2="715.28" y2="350.86"/><line class="cls-9" x1="779.28" y1="320.1" x2="715.28" y2="320.1"/><line class="cls-9" x1="779.28" y1="315.07" x2="715.28" y2="315.07"/><rect class="cls-3" x="200.53" y="520.13" width="138" height="72"/><rect class="cls-4" x="216.03" y="535.63" width="19" height="41"/><path class="cls-10" d="M234.53,536.13v40h-18v-40h18m1-1h-20v42h20v-42Z"/><rect class="cls-4" x="260.03" y="536.63" width="18" height="39"/><path class="cls-10" d="M277.53,537.13v38h-17v-38h17m1-1h-19v40h19v-40Z"/><rect class="cls-4" x="304.03" y="535.13" width="19" height="42"/><path class="cls-10" d="M322.53,535.63v41h-18v-41h18m1-1h-20v43h20v-43Z"/><rect class="cls-3" x="122.28" y="347.07" width="73" height="11"/><rect class="cls-3" x="122.28" y="369.07" width="73" height="11"/><rect class="cls-3" x="122.28" y="327.82" width="73" height="11"/><rect class="cls-3" x="122.53" y="388.82" width="73" height="11"/><line class="cls-9" x1="185.53" y1="333.07" x2="130.53" y2="333.07"/><line class="cls-9" x1="184.53" y1="354.07" x2="129.53" y2="354.07"/><line class="cls-9" x1="130.53" y1="374.07" x2="185.53" y2="374.07"/><line class="cls-9" x1="185.53" y1="394.07" x2="130.53" y2="394.07"/><rect class="cls-3" x="579.28" y="502.07" width="69" height="85"/><path class="cls-4" d="M592.53,574.81l.94-24.83s18-16.73,39.06.73l-.46,24.5Z"/><circle class="cls-4" cx="612.53" cy="532.53" r="10.91"/><rect class="cls-3" x="715.28" y="538.82" width="73" height="11"/><line class="cls-11" x1="778.53" y1="544.07" x2="723.53" y2="544.07"/><rect class="cls-3" x="77.28" y="608.82" width="73" height="11"/><line class="cls-11" x1="140.53" y1="614.07" x2="85.53" y2="614.07"/><rect class="cls-3" x="860.28" y="611.82" width="73" height="11"/><line class="cls-11" x1="923.53" y1="617.07" x2="868.53" y2="617.07"/><rect class="cls-3" x="575.28" y="597.82" width="73" height="11"/><line class="cls-11" x1="638.53" y1="603.07" x2="583.53" y2="603.07"/><rect class="cls-3" x="539.28" y="415.82" width="73" height="11"/><line class="cls-11" x1="602.53" y1="421.07" x2="547.53" y2="421.07"/><rect class="cls-3" x="873.28" y="414.82" width="73" height="11"/><line class="cls-11" x1="936.53" y1="420.07" x2="881.53" y2="420.07"/><text class="cls-12" transform="translate(538.41 193.93)">404</text><polyline class="cls-13" points="152.03 189.57 314.03 222.57 420.53 441.07 293.03 562.57 295.03 375.57 167.03 351.57 114.78 550.57 568.03 373.57 747.28 336.57 744.03 485.57 890.03 566.57 346.03 107.57 617.03 557.57 905.03 374.57 263.78 332.32 225.03 564.57 106.75 236.96 335.87 167.06 117.03 563.57 589.59 422.07 627.13 602.01 766.94 331.46 893.03 541.57"/></svg>