<svg id="Layer_1" data-name="Layer 1" xmlns="http://www.w3.org/2000/svg" viewBox="0 0 1003 103"><defs><style>.cls-1{fill:#ffffff;stroke:#96858f;stroke-miterlimit:10;stroke-width:3px;}</style></defs><title>TK-logo</title><path class="cls-1" d="M607.32,101.41h17.1c0-9.26-.12-18.23,0-27.19.21-13.68-4.44-24.61-17.53-30.95,17.42-9.6,18.93-24.35,16.82-41.77H607.31c0,5.46.13,10.69,0,15.91C607,26,601.57,33.05,593.1,33.87s-16.92.18-25.84.18V1.54H550.18V84.73h17.36V51.07c7.11,0,13.68,0,20.25,0,13.1.13,19.53,6.57,19.53,19.49ZM236.38,85.11c4.08,0,8,0,11.84,0A33.36,33.36,0,0,0,281.5,55c1.65-17.41-9.72-34-26.74-36.13-13.5-1.68-27.33-.68-41-.84-.2,0-.41.33-.56.46v83h16.93V34.59c6.1,0,11.72-.44,17.24.1,7.74.75,13.94,4.4,16.58,12.05,3.57,10.35-4,20.76-15.52,21.58-4,.29-8,.05-12,.05Zm83.21,0c4.09,0,8,0,11.86,0A33.34,33.34,0,0,0,364.69,55c1.63-17.43-9.72-34.08-26.77-36.08-13.6-1.61-27.54-.33-41.54-.33v82.9h16.95V34.59c6.11,0,11.73-.44,17.25.11,7.73.75,13.93,4.41,16.56,12.07,3.54,10.36-4,20.74-15.57,21.55-4,.28-8,.05-12,.05ZM799.81,18.63v82.79h16.82V34.8c6.5,0,12.7-.66,18.71.14,10.2,1.36,16.64,9.18,15.95,18.11s-8,15.13-18.59,15.43c-3.18.09-6.37,0-9.68,0V85.11c4.17,0,8.06,0,12,0A33.38,33.38,0,0,0,868,55.26C869.88,38,858.45,21,841.55,19,827.93,17.35,814,18.63,799.81,18.63Zm-355.94-.77c-12.08,0-23.55,0-35,0-18.33,0-32.86,14.79-32.9,33.35C375.9,70.29,390.12,85,408.66,85.11c10.36,0,20.72,0,31.08,0h4V68.51H439c-10.08,0-20.16.16-30.23-.2a16.55,16.55,0,0,1-16-15.71c-.52-8.6,4.9-16.4,13.32-17.47,6.5-.83,13.2-.17,20.34-.17L410.05,62.7c5.18,0,9.53.22,13.84-.12a6.65,6.65,0,0,0,4.53-2.48c4.92-7.71,9.55-15.61,14.23-23.47a6.67,6.67,0,0,0,1.16-3C443.93,28.53,443.87,23.44,443.87,17.86ZM704.26,68.51H699c-9.94,0-19.89.15-29.81-.21a16.55,16.55,0,0,1-15.88-15c-.87-7.93,3.77-16.26,11.33-17.71,7.08-1.36,14.5-1,22.71-1.37L670.55,62.7c5.11,0,9.54.22,13.93-.12A6.71,6.71,0,0,0,689,60c4.21-6.52,7.71-13.51,12.2-19.82,5.07-7.15,2.53-14.73,3.14-22.35-12.09,0-23.57,0-35,0-17,0-30.95,12.91-32.75,30.12s9.17,34,25.7,36c13.72,1.69,27.82.34,42,.34Zm46.12-5.81c5,0,9.23-.16,13.41,0a5.06,5.06,0,0,0,5.33-2.89c3.57-6.26,6.86-12.77,11.22-18.46C786,34,783.64,26,784.25,17.86c-12.52,0-24.41-.11-36.29,0-17.47.2-31.67,15.41-31.67,33.72s14.24,33.3,31.85,33.48c10.92.11,21.84,0,32.76,0,1.06,0,2.12-.2,3.22-.3V68.51h-4.75c-10.08,0-20.16.15-30.23-.2a16.56,16.56,0,0,1-16-15.69c-.54-8.59,4.88-16.41,13.3-17.48,6.5-.84,13.21-.17,20.36-.17ZM947.25,17.86c-11.91,0-23.36,0-34.8,0A33.1,33.1,0,0,0,879.38,48.1C877.66,65.5,888.8,81,905.57,84.43a8.13,8.13,0,0,0,1.63.37c13.25,0,26.49,0,39.87,0V68.51h-6.15c-9.66-.05-19.33.18-29-.22A16.47,16.47,0,0,1,896.13,52c-.24-8.74,5.74-16.34,14.32-17.16,6.19-.59,12.48-.12,19.5-.12l-16.54,28c5,0,9.34-.13,13.63,0a4.84,4.84,0,0,0,5-2.72c4.51-7.8,9.26-15.46,13.83-23.21A8.56,8.56,0,0,0,947.19,33C947.34,28.18,947.25,23.34,947.25,17.86Zm-750.64,0c-11.5,0-22.8,0-34.1,0-13.35-.06-23.19,6.11-29.35,17.37-6.31,11.52-6.2,23.62,1,34.71,9.63,14.77,22.12,16.55,39.77,14.7V68.36c-4.49,0-8.69.27-12.84-.06A16.77,16.77,0,0,1,145.7,52.85c-.6-8.65,4.64-16.55,13.05-17.66,6.94-.91,14.1-.19,21.5-.19V84.8h16.36Zm-166.83,0V84.81H46.66v-67H74.9V1.53H1.5V17.88Zm90.19,0c-4.5,0-8.69.27-12.84,0C91.5,16.65,80,30.33,80.12,44.36c.1,12.15,0,24.31,0,36.47,0,1.33.12,2.66.19,4h16.9V80.14c0-11.47,0-22.94,0-34.4,0-8.46,2.83-11.22,11.28-11.27,3.74,0,7.48,0,11.44,0ZM475.4,85V80.11c0-11.6,0-23.21,0-34.81,0-7.93,2.94-10.75,10.87-10.83,3.88,0,7.76,0,11.78,0V17.86c-4.46,0-8.66.27-12.81,0-15.59-1.16-27.09,12.5-27,26.56.1,12.16,0,24.32,0,36.47,0,1.34.12,2.67.19,4.12Zm526.1-67.11c-4.5,0-8.69.27-12.84,0-15.62-1.17-27.11,12.5-27,26.54.1,12.15,0,24.31,0,36.47,0,1.33.12,2.66.19,4h16.9V80.14c0-11.47,0-22.94,0-34.4,0-8.46,2.83-11.22,11.28-11.27,3.74,0,7.48,0,11.44,0Z"/></svg>